<svg width="24" height="31" viewBox="0 0 24 31" fill="none" xmlns="http://www.w3.org/2000/svg">
<path d="M22 17.5C21.558 17.5 21.1341 17.6756 20.8215 17.9882C20.5089 18.3007 20.3333 18.7246 20.3333 19.1667C20.3298 21.0864 19.665 22.9462 18.4507 24.4331C17.2365 25.9199 15.547 26.943 13.6667 27.33V15H20.3333C20.7754 15 21.1993 14.8244 21.5119 14.5118C21.8244 14.1993 22 13.7754 22 13.3333C22 12.8913 21.8244 12.4674 21.5119 12.1548C21.1993 11.8423 20.7754 11.6667 20.3333 11.6667H13.6667V9.69333C14.6395 9.35196 15.4826 8.71724 16.0796 7.87666C16.6766 7.03608 16.9982 6.03101 17 5C17 3.67392 16.4732 2.40215 15.5355 1.46447C14.5979 0.526784 13.3261 0 12 0C10.6739 0 9.40216 0.526784 8.46448 1.46447C7.52679 2.40215 7.00001 3.67392 7.00001 5C7.00185 6.03101 7.32344 7.03608 7.92045 7.87666C8.51745 8.71724 9.36048 9.35196 10.3333 9.69333V11.6667H3.66668C3.22465 11.6667 2.80073 11.8423 2.48817 12.1548C2.17561 12.4674 2.00001 12.8913 2.00001 13.3333C2.00001 13.7754 2.17561 14.1993 2.48817 14.5118C2.80073 14.8244 3.22465 15 3.66668 15H10.3333V27.33C8.45307 26.943 6.76356 25.9199 5.5493 24.4331C4.33503 22.9462 3.67018 21.0864 3.66668 19.1667C3.66668 18.7246 3.49108 18.3007 3.17852 17.9882C2.86596 17.6756 2.44204 17.5 2.00001 17.5C1.55798 17.5 1.13406 17.6756 0.821499 17.9882C0.508939 18.3007 0.333344 18.7246 0.333344 19.1667C0.333344 25.5983 5.56834 30.8333 12 30.8333C18.4317 30.8333 23.6667 25.5983 23.6667 19.1667C23.6667 18.7246 23.4911 18.3007 23.1785 17.9882C22.866 17.6756 22.442 17.5 22 17.5ZM12 3.33333C12.9183 3.33333 13.6667 4.08167 13.6667 5C13.6667 5.91833 12.9183 6.66667 12 6.66667C11.0817 6.66667 10.3333 5.91833 10.3333 5C10.3333 4.08167 11.0817 3.33333 12 3.33333Z" fill="white"/>
</svg>
